<svg version="1.1" xmlns="http://www.w3.org/2000/svg" width="32" height="32" viewBox="0 0 32 32">
<defs>
<symbol id="clock" viewBox="0 0 383.25 368.83">
<path d="M380.82,189.6c-12.26-56.31-44.94-95.11-99-115.38-5.42-2-11.07-3.45-16.65-5.15V50.64c.45-.19.77-.35,1.11-.48,12.66-4.73,20-16.25,17.94-28.14-2.33-13.48-12.75-22-27-22Q231.58,0,206,0c-13.09,0-23.68,8.53-26.1,20.83-2.37,12.1,4.23,23.82,16.36,28.71,2,.8,2.59,1.8,2.53,3.82-.14,4.38-.17,8.76,0,13.13.1,2.35-.84,3.21-3,3.74-33.07,8.18-60.15,25.8-81.79,52.07a6.83,6.83,0,0,1-4.66,2.07c-16.34.15-32.68.08-49,.09-5.73,0-9.23,2.8-9.33,7.42-.11,4.81,3.32,7.64,9.39,7.65,12.6,0,25.2,0,37.8,0,1.14,0,2.29.12,3.16.17-3.84,8.62-7.69,16.85-11.12,25.25-1,2.52-2.18,3.33-4.83,3.32-24.95-.1-49.9-.07-74.85-.05a22.16,22.16,0,0,0-4.82.41,7.43,7.43,0,0,0-.85,14.18,16.07,16.07,0,0,0,5.5.72q35,.08,70,0h3.83c-1.26,9.72-2.47,19.07-3.71,28.62H76.3c-9.36,0-18.71,0-28.07,0-4.47,0-7.54,2.83-7.8,6.9-.28,4.67,2.87,8,7.77,8.05,10.85.06,21.69,0,32.52,0l4.53,28.66H80.91c-14.1,0-28.2-.05-42.29,0-6.18,0-10,4.72-8.42,9.93,1.12,3.56,4.19,5.41,9.27,5.42,15.85,0,31.69.08,47.53-.06,2.84,0,4.12.91,5.15,3.52a145.13,145.13,0,0,0,27.64,44.17,150.56,150.56,0,0,0,163.6,40.83c10.33-3.75,20-9.43,29.78-14.58,4.95-2.61,6-6.9,3.64-10.94s-6.85-4.73-11.73-1.79c-.75.45-1.48.93-2.23,1.37-40.32,23.5-82.36,26.67-125,8.27C117,315.81,85.12,252,99.45,187.05A135.54,135.54,0,0,1,253.63,82.66c34.93,5.57,63.65,22.53,85.46,50.49,22.51,28.86,31.57,61.91,28.25,98.24a131.67,131.67,0,0,1-20.44,59.18c-2.9,4.58-2.08,9,1.83,11.44s8.17,1.06,11.07-3.53a148.74,148.74,0,0,0,20.43-51.07c1.17-6,2-12,3-17.95v-24C382.45,200.17,382,194.81,380.82,189.6Zm-131-123.33H214.13V51.49h35.64ZM231.81,36c-8.61,0-17.21,0-25.82,0-6.5,0-11.12-4.08-11.38-9.9-.27-6,4.14-10.73,10.86-10.8q26.39-.29,52.77,0c6.69.06,11.28,4.81,11,10.68s-4.86,10-11.64,10C249,36,240.42,36,231.81,36Z"/><path d="M232,100.76c-64.11.07-116.18,52.38-116.08,116.63A116.28,116.28,0,0,0,232.27,333.68c64-.07,115.8-52.13,115.88-116.35S296,100.7,232,100.76ZM232,318.6c-55.81-.12-101.06-45.74-101-101.81.08-55.48,45.55-100.73,101.17-100.68a101.11,101.11,0,0,1,101,101.62C333,273.1,287.29,318.72,232,318.6Z"/><path d="M333.92,311.48a7.62,7.62,0,0,0-.27,15.23,7.62,7.62,0,0,0,.27-15.23Z"/><path d="M7.24,255.91A7.7,7.7,0,0,0,0,263.5a7.56,7.56,0,0,0,7.53,7.63A7.57,7.57,0,0,0,15,263.38,7.68,7.68,0,0,0,7.24,255.91Z"/><path d="M286.56,157.24c-3.49-1-6,.66-8.27,3-11.19,11.23-22.42,22.42-33.56,33.69-1.55,1.57-2.75,2.23-5.11,1.33a21.36,21.36,0,0,0-15.36.05,3.57,3.57,0,0,1-4.52-1c-4.51-4.67-9.11-9.25-13.73-13.81-3.6-3.55-8.17-3.88-11.3-.93-3.31,3.14-3.15,7.77.55,11.57,4.44,4.56,8.92,9.09,13.5,13.5,1.6,1.53,2.29,2.76,1.32,5.1s-1.09,5.06-1.46,6.93c.59,10.61,5.09,17.92,14.12,22s17.39,2.52,24.68-3.89c7.48-6.57,9.58-15,6.76-24.46-.83-2.78-.33-4.17,1.55-6,8.73-8.57,17.32-17.27,26-25.94,2.9-2.92,6-5.7,8.63-8.83C294.08,165,292.08,158.87,286.56,157.24Zm-54.39,68.22a8.39,8.39,0,0,1-8.35-8.26,8.23,8.23,0,0,1,16.45.13A8.41,8.41,0,0,1,232.17,225.46Z"/><path d="M159.35,209.69a38,38,0,0,0-8.91.24c-3.62.55-5.58,3.09-5.92,6.71a7.11,7.11,0,0,0,5.27,7.64,40.62,40.62,0,0,0,5.87.78l0-.24c1.12,0,2.24.08,3.36,0,4.35-.4,7.3-3.4,7.38-7.46S163.83,210.09,159.35,209.69Z"/><path d="M232.38,151.47a7.15,7.15,0,0,0,7.18-7.06c.08-1.24,0-2.49,0-3.73h0c0-1.25,0-2.5,0-3.74-.24-4.41-3.13-7.27-7.31-7.32a7.31,7.31,0,0,0-7.65,7.43,66.65,66.65,0,0,0,0,7.48A7.31,7.31,0,0,0,232.38,151.47Z"/><path d="M233.19,283.05a6.75,6.75,0,0,0-7.73,3.89c-1,2.05-.92,4.56-1.32,6.85l.37.06c0,1.25-.06,2.5,0,3.75a7.6,7.6,0,0,0,7.32,7.49,7.71,7.71,0,0,0,7.62-7.24,66.49,66.49,0,0,0,0-7.86A7.42,7.42,0,0,0,233.19,283.05Z"/><path d="M312.47,209.92c-1.24-.08-2.49,0-3.73,0v0c-1.25,0-2.5-.06-3.74,0-4.33.24-7.3,3.24-7.35,7.35a7.41,7.41,0,0,0,7.13,7.63,58.46,58.46,0,0,0,7.83,0,7.46,7.46,0,0,0,7-7.77A7.27,7.27,0,0,0,312.47,209.92Z"/>
</symbol>

<symbol id="coins" viewBox="0 0 383.5 378.82">
<path d="M35.71,68.86q27,0,53.9,0h4.46c-7.76,13.15-7.67,25.9,0,38.94-4.25,0-8,0-11.69,0-4.36.07-8.81-.31-13,.46-14,2.55-23.49,10.69-27.47,24.37S41.66,158.18,52,168a10.11,10.11,0,0,1,1,1.36c-8.17,7.36-12.65,16.14-12.6,27.09s4.9,19.51,12.71,26.69c-8.24,7.46-12.76,16.22-12.71,27.17s4.86,19.53,12.66,26.65c-.39.48-.52.69-.7.86-11.5,10.83-15,25-9.61,38.75,5.32,13.58,17.91,21.78,33.47,21.78,27.82,0,55.65,0,83.46.1a8.68,8.68,0,0,1,5.43,2.26c33.39,32.25,72.88,44.51,118.35,35,66-13.8,110.44-79.56,97.93-145.67-9.45-50-39.19-83.35-87.4-99.86-3.92-1.34-5.34-3.8-6.81-7.39,5.9,0,11.48,0,17.06,0a47.92,47.92,0,0,0,6.35-.17C329.11,120,341.88,104,340.53,85,339.29,67.68,324,53.93,305.82,53.91q-27.49,0-55,0c-1.29,0-2.58-.11-4.21-.18l1.1-2C260.76,27.45,244.4,0,216.85,0H34.58A34.44,34.44,0,0,0,1.76,23.27C1.16,25,.59,26.72,0,28.45v12a5.19,5.19,0,0,1,.7,1.22C5.14,58.84,18,68.85,35.71,68.86Zm38.81,53.92c1.12,0,2.24,0,3.36,0q88.7,0,177.38,0c2.69,0,5.38.37,8.66.61-10.86,1-21.23,1.45-31.36,3.17-24.62,4.16-45.81,15.47-63.95,32.53a8.66,8.66,0,0,1-6.53,2.66c-28.69-.1-57.38,0-86.07-.08-9.85,0-17.69-5.81-19.87-14.47C53.06,134.9,61.69,123.42,74.52,122.78Zm-.19,54c25.75-.26,51.5-.08,77.26-.06l0-.08.15.08c.15,0,.27.15,0,0h-.18c-6.28,12.76-12.53,25.49-19.1,38.86-18.71,0-38.28.17-57.84-.07a19.37,19.37,0,0,1-.32-38.73Zm-.55,54c18.54-.55,37.12-.14,55.68-.12a.87.87,0,0,1,.46.22c-.39,6.41-.93,12.72-1.12,19.05s-.05,12.66-.05,19.35a7,7,0,0,1-1.61.21c-17.2,0-34.39.08-51.58,0-9.52,0-17.31-6-19.42-14.51C53.16,242.93,61.26,231.12,73.78,230.75Zm74.06,92.62c-24,0-47.91,0-71.86,0-10.18,0-18-6-20-15.25-2.54-11.63,5.28-23,17.41-23.41,19.8-.65,39.63-.18,58.29-.18,6.1,13.31,11.93,26,17.82,38.85Zm220.44-71.71c-.16,61.75-51,112.4-112.53,112.13-61.82-.28-112.36-51.09-112-112.63.34-61.69,50.81-112,112.33-111.93C317.77,139.29,368.43,190,368.28,251.66ZM259.72,68.86q22.63,0,45.27,0c9.86,0,17.69,5.79,19.87,14.46,3.08,12.3-5.53,23.76-18.37,24.43-.74,0-1.49,0-2.24,0H124.66c-10.48,0-18.39-5.59-20.61-14.48-3.23-12.91,6-24.4,19.86-24.43q43.22-.09,86.43,0h49.38ZM35.61,15q22.72,0,45.46,0h90.54q22.54,0,45.09,0c9.85,0,17.67,5.81,19.83,14.5,3,12.16-5.35,23.51-18,24.38-.87.06-1.74,0-2.62,0H36.3c-10.46,0-18.37-5.62-20.58-14.52C12.51,26.46,21.77,15,35.61,15Z"/><path d="M263.38,197.11a7.33,7.33,0,0,0-7.43-7.67,7.24,7.24,0,0,0-7.36,7.7c.09,3-1.09,4-3.7,4.84-13.34,4.58-20.94,15.85-20.3,29.71.53,11.62,10.36,22.74,23.1,25.75,3.73.88,7.65.91,11.45,1.52,5.66.92,10,3.82,12.27,9.2,1.92,4.54,1,8.8-2,12.63-3.91,5-11.64,7.32-18.28,5.44-7.11-2-10.89-6.5-11.62-13.78a7.76,7.76,0,0,0-7.56-7.31,7.65,7.65,0,0,0-7.39,7.81,26.42,26.42,0,0,0,6.59,17.8,32.6,32.6,0,0,0,17,10.5c.86,7.67,3.3,10.9,8,10.75s6.84-3.29,7.59-10.73c1.59-.54,3-1,4.41-1.5,19.27-7.54,25.46-30.12,12.36-45.29-6.7-7.76-15.49-10.87-25.54-11.16-10.34-.3-17.55-9.12-14.75-17.82,2.15-6.65,9.5-11,17.27-10.24,8.77.88,14,5.93,15,14.36.5,4.56,3.61,7.37,7.93,7.12,4.11-.23,6.91-3.29,7-7.68.32-11.59-8-22.85-20.4-27.08C264.39,201.09,263.28,200.05,263.38,197.11Z"/><path d="M293.39,178.29a76.15,76.15,0,0,1,27.11,22.45q30.38,41,9,87.49c-2.68,5.81-1.87,10.09,2.57,12.19s8.26.2,11.13-5.63a97.13,97.13,0,0,0,10.14-43.58,97.48,97.48,0,0,0-54.47-87.15c-2.87-1.42-5.77-1.55-8.47.38a7.21,7.21,0,0,0-2.91,7.59C288.09,175.35,290.65,176.89,293.39,178.29Z"/><path d="M219.2,325c-6.41-4.24-13.28-8.06-18.89-13.22-27.2-25.06-34.06-63.58-17.81-97.07,2.71-5.59,1.88-9.75-2.39-11.94s-8.38-.4-11.22,5.3c-6.83,13.71-10.25,28.21-10.24,49.3.14,17.5,7.54,38.18,22.26,56.18a96.12,96.12,0,0,0,32,25.36c2.86,1.42,6.11,2,8.4-.24a12.25,12.25,0,0,0,3.12-7C224.72,328.23,221.78,326.65,219.2,325Z"/><path d="M267.41,169.16a7.48,7.48,0,1,0,.1-14.95,7.48,7.48,0,1,0-.1,14.95Z"/><path d="M244.76,333.86a7.49,7.49,0,1,0-.08,14.95,7.48,7.48,0,1,0,.08-14.95Z"/>
</symbol>

<symbol id="lorry" viewBox="0 0 383.4 284.5">
<path d="M382.85,169.48q-20.24-40.59-40.44-81.21c-4.49-9-11.68-13.49-21.84-13.44-19.08.09-38.16,0-57.25,0h-4.18V70.29q0-23.19,0-46.39c0-14.54-9.3-23.9-23.75-23.9H24C9.46,0,.16,9.3.16,23.81.15,87.66.35,151.52,0,215.38c-.07,13.53,10.58,25.12,24.4,24.22,6.79-.44,13.63-.08,20.56-.08.2,11.38,4,21,11.35,30H52c-14.6,0-29.19,0-43.78,0-5.29,0-8.6,3.61-8,8.52.52,4.25,3.68,6.43,9.38,6.43q182.22,0,364.45.06c4.39,0,7.43-1.45,9.38-5.3v-4.49c-2-4.1-5.24-5.55-9.75-5.3-5.21.28-10.44.06-16.44.06,7.52-9.27,11.47-19.35,11.26-31.13,7.95-2.87,12.33-9.05,14.93-16.78V169.91C383.21,169.77,382.94,169.67,382.85,169.48Zm-43.19-49.66a3.06,3.06,0,0,1,2.23,1.39q10.71,21.3,21.25,42.69c0,.08-.08.23-.21.56H289.34v-44.7C306.29,119.76,323,119.74,339.66,119.82Zm-250,149.62c-16.27-.27-29.7-13.93-29.58-30.08.12-16.35,14-30,30.26-29.77s29.72,14,29.58,30.09C119.75,256.05,105.86,269.71,89.63,269.44ZM90,194.73c-19.17,0-32.81,9.51-41.08,26.64-1.16,2.4-2.25,3.34-4.91,3.26-6.35-.2-12.71-.06-19.08-.07-7.07,0-9.77-2.69-9.81-9.67,0-1.61,0-3.22,0-5.31H35.39c7.29,0,9.67-2.35,9.67-9.54,0-9,0-18,0-26.94,0-5.69-2.77-8.39-8.53-8.41-7,0-13.94,0-21.22,0-.07-1.41-.17-2.61-.17-3.81q0-67.91,0-135.81C15.12,17.51,17.68,15,25.26,15H234c7.56,0,10.13,2.56,10.13,10.1q0,97.85,0,195.68v3.81h-3.81q-52.19,0-104.38.06c-2.59,0-3.77-.75-4.95-3.19C122.79,204.29,109.18,194.74,90,194.73Zm-74.67-.36V179.82H30v14.55Zm108.54,74.79A46.32,46.32,0,0,0,135,239.75H277.81c1.23,5.29,1.94,10.62,3.77,15.53s4.75,9.22,7.23,13.88Zm199.79.29c-16.15.11-29.85-13.37-30.07-29.59s13.41-30.15,29.76-30.27c16.16-.11,29.83,13.33,30.08,29.59S340,269.33,323.66,269.45Zm44.68-53.68c-.11,2.28-1.16,4.51-1.78,6.77l-1.16-.09c-.51-.93-1-1.85-1.53-2.78-9.28-17-23.55-26-43-24.89-18.1,1-31,10.52-38.6,27-1,2.15-2.06,2.95-4.41,2.88-6.09-.17-12.18-.06-18.58-.06V89.94c1,0,1.83-.12,2.67-.12,19.33,0,38.67,0,58,0,4.36,0,7.37,1.63,9.13,5.7,1.28,2.93,2.82,5.76,4.49,9.12-1.71.08-3,.19-4.3.19h-46c-6.57,0-9.15,2.51-9.15,8.92q0,28.62,0,57.25c0,6,2.68,8.66,8.66,8.67q40.61,0,81.21,0h4.43v19.29C368.42,204.54,368.6,210.16,368.34,215.77Z"/><path d="M214.22,52.32c0-4.67-3.26-7.4-8.81-7.4H113.78c-5.58,0-8.77,2.69-8.82,7.37s3.13,7.58,8.6,7.58q46,0,92,0C211,59.87,214.26,57,214.22,52.32Z"/><path d="M205.59,74.86q-31.05,0-62.08,0c-5.48,0-8.66,2.84-8.61,7.57s3.24,7.38,8.81,7.38q15.33,0,30.66,0,15.51,0,31,0c5.55,0,8.76-2.72,8.81-7.38S211,74.86,205.59,74.86Z"/><path d="M82.68,44.92A7.48,7.48,0,1,0,90,52.31,7.32,7.32,0,0,0,82.68,44.92Z"/><path d="M323.68,224.56a15,15,0,1,0,14.8,15.05A14.74,14.74,0,0,0,323.68,224.56Z"/><path d="M90,224.56a15,15,0,1,0,14.92,14.92A14.75,14.75,0,0,0,90,224.56Z"/>
</symbol>

<symbol id="instagram" viewBox="0 0 448 512">
<path d="M224.1 141c-63.6 0-114.9 51.3-114.9 114.9s51.3 114.9 114.9 114.9S339 319.5 339 255.9 287.7 141 224.1 141zm0 189.6c-41.1 0-74.7-33.5-74.7-74.7s33.5-74.7 74.7-74.7 74.7 33.5 74.7 74.7-33.6 74.7-74.7 74.7zm146.4-194.3c0 14.9-12 26.8-26.8 26.8-14.9 0-26.8-12-26.8-26.8s12-26.8 26.8-26.8 26.8 12 26.8 26.8zm76.1 27.2c-1.7-35.9-9.9-67.7-36.2-93.9-26.2-26.2-58-34.4-93.9-36.2-37-2.1-147.9-2.1-184.9 0-35.8 1.7-67.6 9.9-93.9 36.1s-34.4 58-36.2 93.9c-2.1 37-2.1 147.9 0 184.9 1.7 35.9 9.9 67.7 36.2 93.9s58 34.4 93.9 36.2c37 2.1 147.9 2.1 184.9 0 35.9-1.7 67.7-9.9 93.9-36.2 26.2-26.2 34.4-58 36.2-93.9 2.1-37 2.1-147.8 0-184.8zM398.8 388c-7.8 19.6-22.9 34.7-42.6 42.6-29.5 11.7-99.5 9-132.1 9s-102.7 2.6-132.1-9c-19.6-7.8-34.7-22.9-42.6-42.6-11.7-29.5-9-99.5-9-132.1s-2.6-102.7 9-132.1c7.8-19.6 22.9-34.7 42.6-42.6 29.5-11.7 99.5-9 132.1-9s102.7-2.6 132.1 9c19.6 7.8 34.7 22.9 42.6 42.6 11.7 29.5 9 99.5 9 132.1s2.7 102.7-9 132.1z"></path>
</symbol>

<symbol id="snapchat" viewBox="0 0 512 512">
<path d="M496.9 366.6c-3.373-9.176-9.8-14.09-17.11-18.15-1.376-.806-2.641-1.451-3.72-1.947-2.182-1.128-4.414-2.22-6.634-3.373-22.8-12.09-40.61-27.34-52.96-45.42a102.9 102.9 0 0 1 -9.089-16.12c-1.054-3.013-1-4.724-.248-6.287a10.22 10.22 0 0 1 2.914-3.038c3.918-2.591 7.96-5.22 10.7-6.993 4.885-3.162 8.754-5.667 11.25-7.44 9.362-6.547 15.91-13.5 20-21.28a42.37 42.37 0 0 0 2.1-35.19c-6.2-16.32-21.61-26.45-40.29-26.45a55.54 55.54 0 0 0 -11.72 1.24c-1.029 .224-2.059 .459-3.063 .72 .174-11.16-.074-22.94-1.066-34.53-3.522-40.76-17.79-62.12-32.67-79.16A130.2 130.2 0 0 0 332.1 36.44C309.5 23.55 283.9 17 256 17S202.6 23.55 180 36.44a129.7 129.7 0 0 0 -33.28 26.78c-14.88 17.04-29.15 38.44-32.67 79.16-.992 11.59-1.24 23.43-1.079 34.53-1-.26-2.021-.5-3.051-.719a55.46 55.46 0 0 0 -11.72-1.24c-18.69 0-34.13 10.13-40.3 26.45a42.42 42.42 0 0 0 2.046 35.23c4.105 7.774 10.65 14.73 20.01 21.28 2.48 1.736 6.361 4.24 11.25 7.44 2.641 1.711 6.5 4.216 10.28 6.72a11.05 11.05 0 0 1 3.3 3.311c.794 1.624 .818 3.373-.36 6.6a102 102 0 0 1 -8.94 15.78c-12.08 17.67-29.36 32.65-51.43 44.64C32.35 348.6 20.2 352.8 15.07 366.7c-3.868 10.53-1.339 22.51 8.494 32.6a49.14 49.14 0 0 0 12.4 9.387 134.3 134.3 0 0 0 30.34 12.14 20.02 20.02 0 0 1 6.126 2.741c3.583 3.137 3.075 7.861 7.849 14.78a34.47 34.47 0 0 0 8.977 9.127c10.02 6.919 21.28 7.353 33.21 7.811 10.78 .41 22.99 .881 36.94 5.481 5.778 1.91 11.78 5.605 18.74 9.92C194.8 480.1 217.7 495 255.1 495s61.29-14.12 78.12-24.43c6.907-4.24 12.87-7.9 18.49-9.758 13.95-4.613 26.16-5.072 36.94-5.481 11.93-.459 23.19-.893 33.21-7.812a34.58 34.58 0 0 0 10.22-11.16c3.434-5.84 3.348-9.919 6.572-12.77a18.97 18.97 0 0 1 5.753-2.629A134.9 134.9 0 0 0 476 408.7a48.34 48.34 0 0 0 13.02-10.19l.124-.149C498.4 388.5 500.7 376.9 496.9 366.6zm-34.01 18.28c-20.75 11.46-34.53 10.23-45.26 17.14-9.114 5.865-3.72 18.51-10.34 23.08-8.134 5.617-32.18-.4-63.24 9.858-25.62 8.469-41.96 32.82-88.04 32.82s-62.04-24.3-88.08-32.88c-31-10.26-55.09-4.241-63.24-9.858-6.609-4.563-1.24-17.21-10.34-23.08-10.74-6.907-24.53-5.679-45.26-17.08-13.21-7.291-5.716-11.8-1.314-13.94 75.14-36.38 87.13-92.55 87.67-96.72 .645-5.046 1.364-9.014-4.191-14.15-5.369-4.96-29.19-19.7-35.8-24.32-10.94-7.638-15.75-15.26-12.2-24.64 2.48-6.485 8.531-8.928 14.88-8.928a27.64 27.64 0 0 1 5.965 .67c12 2.6 23.66 8.617 30.39 10.24a10.75 10.75 0 0 0 2.48 .335c3.6 0 4.86-1.811 4.612-5.927-.768-13.13-2.628-38.72-.558-62.64 2.84-32.91 13.44-49.22 26.04-63.64 6.051-6.932 34.48-36.98 88.86-36.98s82.88 29.92 88.93 36.83c12.61 14.42 23.23 30.73 26.04 63.64 2.071 23.92 .285 49.53-.558 62.64-.285 4.327 1.017 5.927 4.613 5.927a10.65 10.65 0 0 0 2.48-.335c6.745-1.624 18.4-7.638 30.4-10.24a27.64 27.64 0 0 1 5.964-.67c6.386 0 12.4 2.48 14.88 8.928 3.546 9.374-1.24 17-12.19 24.64-6.609 4.612-30.43 19.34-35.8 24.32-5.568 5.134-4.836 9.1-4.191 14.15 .533 4.228 12.51 60.4 87.67 96.72C468.6 373 476.1 377.5 462.9 384.9z"></path>
</symbol>

<symbol id="whatsapp" viewBox="0 0 448 512">
<path d="M380.9 97.1C339 55.1 283.2 32 223.9 32c-122.4 0-222 99.6-222 222 0 39.1 10.2 77.3 29.6 111L0 480l117.7-30.9c32.4 17.7 68.9 27 106.1 27h.1c122.3 0 224.1-99.6 224.1-222 0-59.3-25.2-115-67.1-157zm-157 341.6c-33.2 0-65.7-8.9-94-25.7l-6.7-4-69.8 18.3L72 359.2l-4.4-7c-18.5-29.4-28.2-63.3-28.2-98.2 0-101.7 82.8-184.5 184.6-184.5 49.3 0 95.6 19.2 130.4 54.1 34.8 34.9 56.2 81.2 56.1 130.5 0 101.8-84.9 184.6-186.6 184.6zm101.2-138.2c-5.5-2.8-32.8-16.2-37.9-18-5.1-1.9-8.8-2.8-12.5 2.8-3.7 5.6-14.3 18-17.6 21.8-3.2 3.7-6.5 4.2-12 1.4-32.6-16.3-54-29.1-75.5-66-5.7-9.8 5.7-9.1 16.3-30.3 1.8-3.7 .9-6.9-.5-9.7-1.4-2.8-12.5-30.1-17.1-41.2-4.5-10.8-9.1-9.3-12.5-9.5-3.2-.2-6.9-.2-10.6-.2-3.7 0-9.7 1.4-14.8 6.9-5.1 5.6-19.4 19-19.4 46.3 0 27.3 19.9 53.7 22.6 57.4 2.8 3.7 39.1 59.7 94.8 83.8 35.2 15.2 49 16.5 66.6 13.9 10.7-1.6 32.8-13.4 37.4-26.4 4.6-13 4.6-24.1 3.2-26.4-1.3-2.5-5-3.9-10.5-6.6z"></path>
</symbol>

<symbol id="twitter" viewBox="0 0 512 512">
<path d="M459.4 151.7c.325 4.548 .325 9.097 .325 13.65 0 138.7-105.6 298.6-298.6 298.6-59.45 0-114.7-17.22-161.1-47.11 8.447 .974 16.57 1.299 25.34 1.299 49.06 0 94.21-16.57 130.3-44.83-46.13-.975-84.79-31.19-98.11-72.77 6.498 .974 12.99 1.624 19.82 1.624 9.421 0 18.84-1.3 27.61-3.573-48.08-9.747-84.14-51.98-84.14-102.1v-1.299c13.97 7.797 30.21 12.67 47.43 13.32-28.26-18.84-46.78-51.01-46.78-87.39 0-19.49 5.197-37.36 14.29-52.95 51.65 63.67 129.3 105.3 216.4 109.8-1.624-7.797-2.599-15.92-2.599-24.04 0-57.83 46.78-104.9 104.9-104.9 30.21 0 57.5 12.67 76.67 33.14 23.72-4.548 46.46-13.32 66.6-25.34-7.798 24.37-24.37 44.83-46.13 57.83 21.12-2.273 41.58-8.122 60.43-16.24-14.29 20.79-32.16 39.31-52.63 54.25z"></path>
</symbol> 

<symbol id="messenger" viewBox="0 0 512 512">
<path d="M256.5 8C116.5 8 8 110.3 8 248.6c0 72.3 29.71 134.8 78.07 177.9 8.35 7.51 6.63 11.86 8.05 58.23A19.92 19.92 0 0 0 122 502.3c52.91-23.3 53.59-25.14 62.56-22.7C337.9 521.8 504 423.7 504 248.6 504 110.3 396.6 8 256.5 8zm149.2 185.1l-73 115.6a37.37 37.37 0 0 1 -53.91 9.93l-58.08-43.47a15 15 0 0 0 -18 0l-78.37 59.44c-10.46 7.93-24.16-4.6-17.11-15.67l73-115.6a37.36 37.36 0 0 1 53.91-9.93l58.06 43.46a15 15 0 0 0 18 0l78.41-59.38c10.44-7.98 24.14 4.54 17.09 15.62z"></path>
</symbol>

<symbol id="facebook" viewBox="0 0 512 512">
<path d="M504 256C504 119 393 8 256 8S8 119 8 256c0 123.8 90.69 226.4 209.3 245V327.7h-63V256h63v-54.64c0-62.15 37-96.48 93.67-96.48 27.14 0 55.52 4.84 55.52 4.84v61h-31.28c-30.8 0-40.41 19.12-40.41 38.73V256h68.78l-11 71.69h-57.78V501C413.3 482.4 504 379.8 504 256z">
</path>
</symbol>

<symbol id="angle-left" viewBox="0 0 256 512">
<path d="M31.7 239l136-136c9.4-9.4 24.6-9.4 33.9 0l22.6 22.6c9.4 9.4 9.4 24.6 0 33.9L127.9 256l96.4 96.4c9.4 9.4 9.4 24.6 0 33.9L201.7 409c-9.4 9.4-24.6 9.4-33.9 0l-136-136c-9.5-9.4-9.5-24.6-.1-34z"></path>
</symbol>

<symbol id="angle-right" viewBox="0 0 256 512">
<path d="M224.3 273l-136 136c-9.4 9.4-24.6 9.4-33.9 0l-22.6-22.6c-9.4-9.4-9.4-24.6 0-33.9l96.4-96.4-96.4-96.4c-9.4-9.4-9.4-24.6 0-33.9L54.3 103c9.4-9.4 24.6-9.4 33.9 0l136 136c9.5 9.4 9.5 24.6.1 34z"></path>
</symbol>

<symbol id="times" viewBox="0 0 352 512">
<path d="M242.72 256l100.07-100.07c12.28-12.28 12.28-32.19 0-44.48l-22.24-22.24c-12.28-12.28-32.19-12.28-44.48 0L176 189.28 75.93 89.21c-12.28-12.28-32.19-12.28-44.48 0L9.21 111.45c-12.28 12.28-12.28 32.19 0 44.48L109.28 256 9.21 356.07c-12.28 12.28-12.28 32.19 0 44.48l22.24 22.24c12.28 12.28 32.2 12.28 44.48 0L176 322.72l100.07 100.07c12.28 12.28 32.2 12.28 44.48 0l22.24-22.24c12.28-12.28 12.28-32.19 0-44.48L242.72 256z"></path>
</symbol>

<symbol id="plus" viewBox="0 0 448 512">
<path d="M416 208H272V64c0-17.67-14.33-32-32-32h-32c-17.67 0-32 14.33-32 32v144H32c-17.67 0-32 14.33-32 32v32c0 17.67 14.33 32 32 32h144v144c0 17.67 14.33 32 32 32h32c17.67 0 32-14.33 32-32V304h144c17.67 0 32-14.33 32-32v-32c0-17.67-14.33-32-32-32z"></path>
</symbol>

<symbol id="minus" viewBox="0 0 448 512">
<path d="M416 208H32c-17.67 0-32 14.33-32 32v32c0 17.67 14.33 32 32 32h384c17.67 0 32-14.33 32-32v-32c0-17.67-14.33-32-32-32z"></path>
</symbol>
</defs>
</svg>
