<svg version="1.1" xmlns="http://www.w3.org/2000/svg" width="32" height="32" viewBox="0 0 32 32">
<defs>
<symbol id="logo" viewBox="0 0 122.66 122.66">
<path d="M1.55,75.15a61.33,61.33,0,0,0,120.87-8.66,58.65,58.65,0,0,0-6-32Q102.48,6.89,72,.94C69.89.53,67.75.31,65.63,0H57c-2.12.31-4.26.53-6.37.94C30.36,4.86,15.54,16.11,6.17,34.48A57.09,57.09,0,0,0,.22,56,6.1,6.1,0,0,1,0,57v8.62c.08.39.17.77.23,1.15C.67,69.57.91,72.41,1.55,75.15Zm60-71.09A57.26,57.26,0,1,1,4.06,61.21,57.21,57.21,0,0,1,61.58,4.06Z"/><path d="M31.15,89.69a3.06,3.06,0,0,1-.29.45c-1.54,1.49-3.07,3-4.63,4.47a5.81,5.81,0,0,0-1.74,5.45,3.25,3.25,0,0,0,2.42,2.68,5.57,5.57,0,0,0,5.67-1.56l5.79-5.35c16.5,9.77,32.85,9.15,48.57-1.94,1.87,1.75,3.76,3.46,5.57,5.25A5.88,5.88,0,0,0,96.63,101a3.26,3.26,0,0,0,3.52-3.36A6.48,6.48,0,0,0,98,93l-4.93-5.33c-.09.15,0,0,.08-.11,10.29-13.31,12.15-27.75,5.73-43.27a1.11,1.11,0,0,1,.31-1.43c2.14-2.24,4.24-4.51,6.35-6.79a2,2,0,0,0-.16-3,1.73,1.73,0,0,0-2.7.12q-.48.46-.93.93L96.5,39.64,94,36c2-2,3.93-3.83,5.81-5.78.35-.37.72-1.14.57-1.51A3.43,3.43,0,0,0,98.85,27a2.24,2.24,0,0,0-1.85.61c-1.88,1.78-3.65,3.67-5.42,5.47l-3-3,5.34-5.3a2,2,0,0,0,.2-3,1.92,1.92,0,0,0-2.95.07c-2,1.88-4.06,3.78-6.08,5.67A41.64,41.64,0,0,0,33.7,30.57a10.49,10.49,0,0,0-.89-1c-1.51-1.35-3-2.77-4.58-4-2.39-1.8-3.42-.67-3.69,1.75a16.94,16.94,0,0,0,1.27,9.44,3.77,3.77,0,0,1-.22,4,37.56,37.56,0,0,0-5.4,16.91,40.64,40.64,0,0,0,7,26.86C28.42,86.31,29.81,88,31.15,89.69ZM96,46.28c5.83,12.88,3.37,29-5.68,39.18l-7.65-7,3.91-8.3a4.91,4.91,0,0,0,.22-.68c.29-1-.08-1.92-.94-2.11a1.53,1.53,0,0,0-2,1.2A24.33,24.33,0,0,1,80,76.07L69.17,65.88l-3.64,3.81L75.62,80.83c-1.86.88-3.59,1.71-5.33,2.52-.33.15-.7.18-1,.31a1.46,1.46,0,0,0-1,1.93,1.35,1.35,0,0,0,1.88,1c2.15-.9,4.25-1.93,6.37-2.92a7.71,7.71,0,0,0,.89-.58l7.09,8c-12.75,10.28-31.26,10.46-43.8,1.86,1.12-1.24,2.21-2.48,3.34-3.7,5.57-6,11.09-12,16.74-18C64.33,67.55,68,64,71.68,60.5a21.69,21.69,0,0,1,9.53-5.11c1-.27,2.12-.25,3.17-.43a11.66,11.66,0,0,0,6-3.42C92.25,49.8,94.09,48,96,46.28Zm-4.21-7.37c2.37,3,2.36,3-.32,5.62C89.94,46,88.5,47.46,87,48.9c-1.08,1.05-2.25,1.1-3.13.19s-.78-2.11.26-3.16c2.4-2.43,4.81-4.85,7.25-7.31C91.62,38.81,91.69,38.85,91.74,38.91ZM86.1,32.56c1,1.09,1.84,2.07,2.77,3.1-2.59,2.58-5.2,5.21-7.84,7.8a2.07,2.07,0,0,1-2.88-.12,1.93,1.93,0,0,1,0-2.78C80.69,37.94,83.3,35.37,86.1,32.56ZM28.76,42.28c1.4,1.56,2.73,3.15,4.17,4.64A94.4,94.4,0,0,0,53.17,62.28c.87.51,1.86,1.36,2.69,1.26S57.32,62.29,58,61.6l3-3c.08-.08.16-.18.23-.26L36.16,33.35c11.93-11.52,32.49-13.17,46.32-3.21-1.26,1.2-2.53,2.34-3.71,3.58-1.56,1.64-3.11,3.29-4.54,5-1.62,2-2,4.44-2.35,6.87a18.23,18.23,0,0,1-5,9.92c-5.21,5.42-10.59,10.68-16,15.87s-11.25,10.43-17,15.76a37.55,37.55,0,0,1-5-44.9Z"/>
</symbol>
</defs>
</svg>
