<svg style="position: absolute; width: 0; height: 0; overflow: hidden;" xmlns="http://www.w3.org/2000/svg" xmlns:xlink="http://www.w3.org/1999/xlink">
<defs>
<symbol id="icon-image" viewBox="0 0 200 200">
<title>Image</title>
<path d="M28.16,140c-2.92,0-5.07.1-7.21,0C9,139.33.23,130.87.16,118.91q-.32-49,0-98C.23,9.17,9.31.21,21.26.15q63-.3,125.9,0c11.93.06,20.31,8.93,20.92,21,.11,2.11,0,4.24,0,7,2.36,0,4.28,0,6.21,0,12.63.25,21.79,9.06,21.84,21.6q.21,48.27,0,96.54C196.1,158.89,187.1,168,174.46,168q-62.2.21-124.4,0C33.62,167.76,26.92,155.42,28.16,140ZM119,56.57,154.3,95c0-25.29,0-49,0-72.7,0-5.9-2.87-8.37-9.22-8.38q-60.93,0-121.86,0c-6.8,0-9.14,2.44-9.15,9.37,0,20.47,0,39.05,0,59.85L49,42.6,91.32,88.68ZM42.48,140c-1.52,11.8.52,14.2,11.41,14.2H172.28c7.78,0,9.95-2.21,10-10.1v-91c0-9.85-3.65-12.66-14.12-10.46q0,36.69,0,73.43c0,15.57-8.37,24-23.93,24C110.25,140,76.42,140,42.48,140ZM49.32,63.5C40,74.34,31.14,85.27,21.54,95.49c-5.72,6.08-8.47,12.32-7.66,20.75.75,7.74,2.37,10,10.19,10,27.53-.31,54.89.68,82.41-.41Zm51.47,35.58c7.9,8.59,15.58,17,23.39,25.33a6,6,0,0,0,3.76,1.77c6.28.17,12.62.5,18.84-.16,2.45-.26,5.71-2.49,6.63-4.65s.18-6.05-1.37-7.89c-10.59-12.38-21.71-24-32.83-35.94Z"/>
</symbol>
</defs>
</svg>
