<svg version="1.1" xmlns="http://www.w3.org/2000/svg" width="32" height="32" viewBox="0 0 32 32">
<defs>
<symbol id="icon-exit" viewBox="0 0 226.16 226.16">
<title>Exit</title>
<path d="M112.89.41c5.25.46,8.92,4.23,9,9.28.1,4.85-3.47,8.75-8.61,9.39a24.3,24.3,0,0,1-3.07.17q-40.32,0-80.63,0c-4,0-7.37,1-9.49,4.7A7.62,7.62,0,0,0,19,27.88c0,.8,0,1.61,0,2.42V195.53c0,2.21,0,4.39,1.24,6.36a8.75,8.75,0,0,0,7.13,4.46c1,.07,2,.11,3.08.11H111c5.46,0,8.91,2.17,10.36,6.44A9.21,9.21,0,0,1,113,225.23c-4.77.17-9.55.09-14.32.08-23.86,0-47.73.11-71.59-.11C14,225.08,2.87,215.26.5,202.33c-.06-.35,0-.75-.45-.89V24.28c.85-1.14.75-2.57,1.13-3.85a28.26,28.26,0,0,1,26.6-20c.8,0,1.61.09,2.41.09Q60.1.48,90,.48,101.45.47,112.89.41Z"/>
<path d="M192.84,103.46c-.22-1.07-1-1.45-1.54-2q-18.87-18.68-37.78-37.32c-3.81-3.77-4.63-7.85-2.46-11.9a9.25,9.25,0,0,1,13.9-3.1,22.2,22.2,0,0,1,2.29,2.05l54.42,53.72c5.5,5.43,5.5,10.45,0,15.9q-27.36,27-54.72,54c-2.76,2.73-5.83,4.4-9.85,3.3A9.29,9.29,0,0,1,152.19,163a25.33,25.33,0,0,1,1.81-1.92q18.74-18.51,37.47-37c.49-.48,1.23-.81,1.33-1.82h-2.18q-52.34,0-104.66,0c-2.93,0-5.72-.34-7.94-2.5-2.89-2.82-3.87-6.23-2.49-10a8.79,8.79,0,0,1,8-6.16c1-.08,2.06-.11,3.08-.11h106.2Z"/>
</symbol>
<symbol id="icon-trolley" viewBox="0 0 384 384">
<title>Trolley</title>
<path d="M358.52,286.93c18.82,19.69,15.11,46,0,60.64a42.21,42.21,0,0,1-57.28,1.05c-15.51-14-20.55-40.07-1.89-61H173.72c1,1.26,1.95,2.44,2.86,3.65C186.9,305,188.92,320,181.51,335.46S161.25,359,144,359.25c-19.55.27-36-12.6-41-31.66a41.8,41.8,0,0,1,20.26-46.8c1.89-1.05,2.63-2.08,2.62-4.27-.1-17.33.1-34.67-.14-52-.09-6.22-2.86-12-4.54-18Q101.19,136.3,81,66.11c-1.44-5-3-6.16-8.25-6.17q-21.13,0-42.27,0C20,59.92,12.08,52.25,12.07,42s7.79-18,18.26-18q31.05,0,62.1,0c8.66,0,15.24,4.8,17.69,13.23,4.18,14.4,8.31,28.82,12.16,43.31.82,3.09,2.28,3.37,4.94,3.37q114.47-.09,228.94-.05c8.25,0,10,2.06,8.37,10.14q-11.31,57-22.63,114c-1.22,6.15-2.23,7.3-8.46,7.78-13.54,1.05-27.09,1.87-40.64,2.79q-25.35,1.72-50.71,3.45-25.17,1.68-50.35,3.29c-9,.58-17.9,1.2-26.86,1.65-2.54.13-3.32,1-3.23,3.57.2,5.85.3,11.73,0,17.58-.19,3.28,1.22,3.45,3.81,3.44q74.44-.08,148.89,0h38.16c9.36,0,16.43,5.47,18.46,14.22,1.9,8.18-2.49,16.44-10.8,20.37C359.59,286.34,359.07,286.64,358.52,286.93ZM246.15,275.44h104a28.91,28.91,0,0,0,3.36-.06,5.93,5.93,0,0,0,0-11.85,31.06,31.06,0,0,0-3.74-.06H157.15c-5.46,0-7.4-1.93-7.41-7.37,0-10.1,0-20.2,0-30.3a20.67,20.67,0,0,0-.78-5.87q-14.35-51-28.7-102Q109.6,80,98.91,42.09C97.56,37.31,95.89,36,91,36c-3.24,0-6.48,0-9.73,0-9.82,0-9.76,0-9.37,9.78.07,1.84.62,2.18,2.34,2.24,10.16.36,15.76,5,18.63,15,13.37,46.83,26.64,93.7,40.26,140.46,3.27,11.21,5.26,22.35,4.77,34.07-.47,11.33.07,22.7-.21,34-.08,3.49,1.05,3.93,4.13,3.92C176.57,275.4,211.36,275.44,246.15,275.44ZM144,287.43c-16-.28-29.8,13.14-30.17,29.36s13,30.1,29.48,30.44c16.22.34,30.17-13.24,30.35-29.53A30.26,30.26,0,0,0,144,287.43Zm215.21,29.91a30.26,30.26,0,0,0-30-29.92c-16.23,0-30,13.85-29.81,30.1a30.25,30.25,0,0,0,30.2,29.74C345.74,347.1,359.3,333.4,359.21,317.34ZM239.82,95.86c-7,0-14,.07-20.94,0-2.12,0-2.73.45-2.49,2.68Q218,113.7,219.29,129c.19,2.25,1,2.88,3.18,2.86,10.72-.11,21.45-.31,32.16.08,4.15.15,4.84-1.55,5.13-5,.8-9.55,1.8-19.08,2.84-28.6.22-1.93-.12-2.58-2.21-2.54C253.54,95.94,246.68,95.86,239.82,95.86Zm0,47.88H227.11c-6,0-6.1,0-5.61,5.95.74,9,1.57,18.06,2.4,27.09.14,1.41,0,2.95,2.35,2.92,8.83-.11,17.66-.06,26.49,0,1.21,0,1.69-.28,1.81-1.62,1-10.76,2-21.52,3.16-32.26.24-2.24-.81-2.07-2.24-2.06C250.24,143.76,245,143.74,239.79,143.74ZM186.55,95.86c-5.11,0-10.22,0-15.32,0-1.52,0-2.27.16-1.9,2,2.07,10.47,4,21,6,31.43.35,1.86,1.12,2.57,3.17,2.54,8.72-.14,17.44-.16,26.16,0,2.41,0,2.91-.66,2.67-2.92q-1.61-15.39-3-30.82c-.15-1.79-.8-2.3-2.52-2.27C196.76,95.91,191.65,95.86,186.55,95.86Zm123.37,0h-28c-6.57,0-6.73,0-7.49,6.39-1.06,9-1.84,18-2.77,27.06-.15,1.48-.23,2.54,1.92,2.51,9.08-.12,18.17-.07,27.25,0,1.51,0,2.09-.44,2.39-2C305.33,118.58,307.61,107.42,309.92,95.86Zm5.28,35.91c9.25,0,18.33,0,27.42,0,1.77,0,2.19-.66,2.51-2.33,2-10.47,4.05-20.93,6.28-31.36.43-2,0-2.3-1.81-2.28q-12.53.09-25,0c-1.68,0-2.42.51-2.74,2.19C319.68,109.2,317.45,120.36,315.2,131.77Zm-9.58,47.89c9.43,0,18.38,0,27.32,0,1.68,0,2.21-.41,2.55-2.17,2-10.58,4.21-21.13,6.44-31.67.45-2.15-.61-2.15-2.18-2.14-8.21.05-16.42.08-24.63,0-1.65,0-2.51.39-2.83,2.05C310.12,156.94,307.9,168.11,305.62,179.66ZM178.15,143.74c2.18,11.32,4.32,22.39,6.4,33.46.3,1.57.55,2.58,2.67,2.53,7.47-.18,14.95-.17,22.42,0,2.29.05,2.37-1,2.21-2.64-1-10.53-2-21.05-3-31.58-.14-1.59-.87-1.77-2.14-1.77C197.28,143.76,187.82,143.74,178.15,143.74Zm88.39,35.92c8.47,0,16.78,0,25.1,0,1.58,0,1.65-.81,1.89-2Q296.68,161.84,300,146c.38-1.85-.12-2.33-2-2.31-8.58.08-17.16.11-25.74,0-2,0-2.12.81-2.27,2.38C268.92,157.17,267.73,168.26,266.54,179.66ZM141.78,95.86c-4.23,0-8.47.09-12.69,0-1.89-.06-2.35.4-1.82,2.24q4.55,15.87,8.93,31.78a2.22,2.22,0,0,0,2.57,2c7.47,0,14.93-.08,22.39,0,2,0,2.32-.64,2-2.36q-3-15.69-6-31.39c-.29-1.57-.93-2.3-2.69-2.25C150.24,96,146,95.86,141.78,95.86Zm-1.58,47.89c3.26,11.71,6.44,23,9.56,34.39.4,1.46,1.35,1.53,2.54,1.53,6,0,12-.1,17.95,0,2,0,2.28-.7,2-2.37q-3-15.92-6-31.83c-.21-1.15-.62-1.78-1.9-1.78C156.35,143.76,148.42,143.75,140.2,143.75Zm47.12,47.89c1.22,6.48,2.44,12.67,3.51,18.9.3,1.76.74,2.56,2.81,2.38,6.2-.52,12.41-.84,18.62-1.09,2.08-.08,2.85-.77,2.61-2.89q-.87-7.77-1.49-15.58c-.1-1.23-.4-1.75-1.71-1.75C203.59,191.66,195.51,191.64,187.32,191.64Zm46.17,18.69,15.88-1.17c1.1-.08,2.09,0,2.22-1.73.33-4.46.87-8.91,1.42-13.35.24-2-.38-2.52-2.38-2.49q-11.58.16-23.16,0c-2,0-2.18.6-1.92,2.37.54,3.68.9,7.4,1.17,11.12C227.11,210.48,227.05,210.48,233.49,210.33Zm-79.81-18.7c2,7.41,4,14.44,5.91,21.49.45,1.67,1.46,1.95,3,1.83,4.84-.37,9.68-.69,14.53-.82,2,0,1.93-1,1.66-2.35-1.2-6.08-2.51-12.15-3.52-18.26-.29-1.76-1.05-1.91-2.44-1.9C166.64,191.65,160.41,191.63,153.68,191.63ZM44.24,36c-4.23,0-8.46,0-12.69,0-4.6,0-7.5,2.41-7.47,6S27,47.93,31.64,48c6.34,0,12.68,0,19,0,9.79,0,9.73,0,9.34-9.76-.08-1.82-.6-2.28-2.34-2.24C53.2,36.07,48.72,36,44.24,36ZM303.1,205.63c6.33-.41,12.78-.95,19.24-1.23,7.88-.33,7.88-.23,9.29-7.82a18.29,18.29,0,0,1,.47-1.8c.66-2.21.41-3.35-2.45-3.22-5.34.25-10.7.06-16,.08-3.35,0-7.46-1.08-9.85.46s-1.67,6.11-2.49,9.31c-.16.6-.28,1.2-.4,1.81C300.51,204.94,300.25,206.61,303.1,205.63Zm-24.69-14c-3.47,0-7,.13-10.42,0-2.09-.11-2.87.65-3,2.66-.22,3.84-.47,7.68-1,11.48-.29,2.07.31,2.56,2.26,2.41q9.83-.81,19.66-1.41c1.56-.1,2.06-.68,2.3-2.2.54-3.41,1.31-6.79,2.08-10.16.43-2,.18-3-2.23-2.79C284.88,191.79,281.64,191.63,278.41,191.63Z"/>
<path d="M125.8,317.18a18,18,0,1,1,35.9.32c0,10.14-8.11,17.91-18.5,17.8A17.78,17.78,0,0,1,125.8,317.18Zm17.8,6.11a6,6,0,1,0-5.8-6.1A6.3,6.3,0,0,0,143.6,323.29Z"/>
<path d="M329.46,299.38a18,18,0,1,1-18.11,17.81A17.78,17.78,0,0,1,329.46,299.38Zm5.79,17.94a6,6,0,1,0-5.94,6A6.32,6.32,0,0,0,335.25,317.32Z"/>
</symbol>
</defs>
</svg>
